# xmcd
# 
# Track frame offsets:
#     150
#     10864
#     20175
#     30597
#     43274
#     57142
#     71739
#     84390
#     96669
#     104794
#     111340
# 
# Disc length: 1598
# 
# Revision: 0
# Processed by: cddbd v1.5.2PL0 Copyright (c) Steve Scherf et al.
# Submitted via: fre:ac v1.0.31
# 
DISCID=9c063c0b
DTITLE=Heather Gentry - Country Sides
DYEAR=2018
DGENRE=Country
TTITLE0=Sweet Nothin's
TTITLE1=Your Good Girl's Gonna Go Bed
TTITLE2=Crazy
TTITLE3=She's Got You
TTITLE4=In The Ghetto
TTITLE5='Til I can Make It On My Own
TTITLE6=Blue Moon Of Kentucky
TTITLE7=Stand By Your Man
TTITLE8=Cry
TTITLE9=Walkin' After Midnight
TTITLE10=I can't Stop Loving You
EXTD=Cover's as far as I know\nHeatherrelisegentry@gmail.com
EXTT0=
EXTT1=
EXTT2=
EXTT3=
EXTT4=
EXTT5=
EXTT6=
EXTT7=
EXTT8=
EXTT9=
EXTT10=
PLAYORDER=
